# xmcd CD database file
#
# Track frame offsets:
#	150
#	13328
#	31694
#	45854
#	62260
#	78611
#	92630
#	107172
#	128162
#	145229
#	161836
#	175922
#
# Disc length: 2574 seconds
#
# Revision: 0
# Processed by: cddbd v1.5.2PL0 Copyright (c) Steve Scherf et al.
# Submitted via: CDex 1.70beta2
#
DISCID=930a0c0c
DTITLE=Gastelo - En El Fondo De Los Mares
DYEAR=2010
DGENRE=Blues
TTITLE0=Mi Amor
TTITLE1=Sinceramente Tuya
TTITLE2=Me Equivoqué Contigo
TTITLE3=Punk
TTITLE4=Será
TTITLE5=Sola
TTITLE6=Si Tú Piensas En Mi
TTITLE7=El Fondo De Los Mares
TTITLE8=Nadie Se Queda
TTITLE9=Recuérdame
TTITLE10=Como Para Pensar En Ti
TTITLE11=Lazos
EXTD=YEAR: 2010
EXTT0=
EXTT1=
EXTT2=
EXTT3=
EXTT4=
EXTT5=
EXTT6=
EXTT7=
EXTT8=
EXTT9=
EXTT10=
EXTT11=
PLAYORDER=
